# xmcd
# Track frame offsets:
# 150
# 22998
# 36194
# 47315
# 66614
# 85391
# 104308
# 128817
# 141164
# 156214
#
# Disc length: 2336 seconds
# Revision: 0
# Processed by: cddbd v1.5.1PL0 Copyright (c) Steve Scherf et al.
# Submitted via: VisiTrax 2.9.10.228 - For more info visit www.synapsa.com
#
DISCID=83091e0a
DTITLE=Garth Brooks - Fresh Horses
DYEAR=1900
DGENRE=
TTITLE0=Garth Brooks - Ireland
TTITLE1=Garth Brooks - She's every woman
TTITLE2=Garth Brooks - It's midnight cinderella
TTITLE3=Garth Brooks - The beaches of cheyenne
TTITLE4=Garth Brooks - The change
TTITLE5=Garth Brooks - Rollin
TTITLE6=Garth Brooks - That oi wind
TTITLE7=Garth Brooks - The fever
TTITLE8=Garth Brokks - Cowboys and angels
TTITLE9=Garth Brooks - The old stuff
EXTD=
EXTT0=
EXTT1=
EXTT2=
EXTT3=
EXTT4=
EXTT5=
EXTT6=
EXTT7=
EXTT8=
EXTT9=
PLAYORDER=
